<?xml version="1.0" standalone="no"?>
<!DOCTYPE svg PUBLIC "-//W3C//DTD SVG 20010904//EN"
 "http://www.w3.org/TR/2001/REC-SVG-20010904/DTD/svg10.dtd">
<svg version="1.0" xmlns="http://www.w3.org/2000/svg"
 width="524.000000pt" height="524.000000pt" viewBox="0 0 524.000000 524.000000"
 preserveAspectRatio="xMidYMid meet">
<metadata>
Created by potrace 1.14, written by Peter Selinger 2001-2017
</metadata>
<g transform="translate(0.000000,524.000000) scale(0.100000,-0.100000)"
fill="#000000" stroke="none">
<path d="M4301 4024 c-357 -190 -612 -453 -703 -728 -16 -48 -48 -191 -48
-213 0 -3 -19 16 -42 43 -220 252 -516 411 -858 461 -19 2 -62 8 -95 13 -66 9
-413 6 -485 -5 -97 -13 -270 -60 -364 -98 -356 -142 -612 -409 -771 -803 -33
-83 -91 -270 -101 -329 -2 -16 -11 -66 -20 -110 -8 -44 -17 -124 -21 -177 l-6
-98 29 -1 c42 -1 206 -1 229 0 17 1 24 16 42 87 39 148 112 274 227 390 160
161 405 277 676 319 25 3 56 8 70 10 54 8 201 16 310 15 109 0 138 -2 270 -15
281 -29 556 -144 723 -304 131 -124 230 -302 253 -456 4 -32 11 -45 23 -46 31
-1 246 -1 265 0 17 1 18 7 12 84 -12 147 -50 365 -77 434 -5 14 -8 27 -7 29 2
1 28 -4 58 -12 30 -8 71 -17 90 -19 45 -7 207 -6 263 1 64 8 215 44 277 66 30
11 62 21 70 23 44 10 281 120 385 178 63 35 135 78 135 80 0 1 -46 2 -102 2
-176 1 -284 22 -353 68 -42 28 -93 85 -117 132 l-21 39 -22 -45 c-62 -120
-215 -220 -390 -254 -65 -13 -84 -14 -200 -15 -198 -1 -208 7 -160 115 13 30
24 56 23 58 -1 1 17 39 40 85 67 133 130 220 227 318 75 76 105 98 175 132 91
43 163 62 236 62 25 0 44 3 42 8 -1 4 -18 36 -36 72 -17 36 -39 92 -48 125
-16 64 -18 202 -3 282 5 26 8 48 6 49 -1 2 -49 -22 -106 -52z"/>
<path d="M1516 2151 c-40 -27 -64 -68 -71 -123 -6 -42 -4 -48 12 -49 90 -3
273 0 281 5 26 16 -15 127 -59 159 -39 28 -126 33 -163 8z"/>
<path d="M3075 2156 c-45 -20 -66 -49 -80 -111 -13 -53 -12 -57 5 -63 16 -6
226 -8 278 -3 18 2 14 60 -7 108 -32 70 -122 102 -196 69z"/>
<path d="M352 1691 c-4 -3 -8 -96 -8 -206 l1 -200 48 -3 47 -3 1 43 c0 24 0
81 0 128 -1 84 -1 85 16 60 9 -14 21 -29 26 -35 4 -5 35 -52 69 -102 l61 -93
48 0 49 0 0 208 0 208 -42 -2 c-24 -1 -46 -3 -50 -3 -4 -1 -9 -56 -10 -123
l-3 -122 -75 114 c-41 62 -78 117 -81 122 -7 11 -84 18 -97 9z"/>
<path d="M924 1692 c-20 -3 -21 -8 -20 -207 l1 -205 47 0 48 0 1 38 c0 20 0
113 1 207 l0 169 -28 1 c-16 0 -38 -1 -50 -3z"/>
<path d="M1197 1685 c-2 -5 -3 -98 -2 -205 l0 -195 44 -3 c24 -2 47 1 50 6 3
6 6 62 5 126 -1 64 0 116 1 116 2 0 41 -56 87 -125 l83 -126 50 3 49 3 1 190
c0 105 -1 197 -3 206 -3 14 -23 16 -88 10 -7 -1 -10 -43 -10 -126 1 -69 0
-125 -1 -125 -1 0 -39 56 -84 125 -45 69 -85 125 -90 126 -42 5 -89 2 -92 -6z"/>
<path d="M1928 1689 c-9 -6 -13 -48 -13 -152 -1 -150 -8 -178 -43 -173 -9 2
-23 14 -29 28 -11 22 -18 25 -60 23 -45 -1 -48 -3 -45 -26 18 -120 206 -153
263 -47 12 21 19 316 9 341 -6 13 -62 18 -82 6z"/>
<path d="M2354 1692 c-15 -2 -25 -18 -41 -65 -12 -34 -38 -107 -58 -162 -20
-55 -40 -111 -45 -125 -4 -14 -11 -33 -15 -43 -7 -16 -2 -18 45 -15 49 3 54 5
63 33 6 17 13 32 18 35 4 3 40 5 80 4 l73 -1 11 -34 c11 -32 15 -34 63 -37 29
-2 52 -1 52 2 0 3 -6 23 -14 43 -8 21 -33 88 -54 148 -88 241 -78 222 -120
221 -20 -1 -46 -2 -58 -4z m87 -234 c14 -27 13 -28 -45 -28 l-54 0 26 76 26
76 19 -53 c10 -30 23 -62 28 -71z"/>
<path d="M3021 1690 c-4 -3 -7 -96 -7 -207 l0 -203 116 0 116 0 -2 33 c-1 17
-3 35 -3 38 -1 4 -25 7 -53 7 -29 0 -59 0 -65 1 -10 1 -13 42 -13 169 l0 168
-41 -1 c-22 0 -44 -2 -48 -5z"/>
<path d="M3429 1692 c-13 -2 -15 -32 -14 -205 l0 -202 48 -3 47 -3 0 209 0
209 -33 -1 c-18 -1 -40 -2 -48 -4z"/>
<path d="M3758 1679 c-50 -26 -61 -44 -62 -101 0 -43 3 -54 30 -77 16 -15 55
-35 86 -45 68 -21 94 -46 79 -74 -6 -11 -16 -22 -23 -25 -20 -7 -59 11 -65 31
-3 14 -14 17 -56 17 -35 0 -52 -5 -51 -13 1 -7 2 -19 3 -27 2 -20 48 -64 79
-76 28 -11 93 -13 132 -5 40 9 81 58 87 103 8 61 -18 97 -86 123 -89 34 -106
44 -109 69 -7 44 45 56 78 18 16 -18 29 -22 65 -21 26 1 48 3 50 5 1 2 -4 21
-12 41 -28 70 -143 99 -225 57z"/>
<path d="M4172 1690 c-4 -3 -8 -21 -8 -41 l-2 -36 45 2 c25 0 51 -4 57 -10 7
-8 11 -64 10 -168 l-1 -157 48 0 49 0 0 165 c0 183 -7 168 72 168 40 0 49 13
38 57 l-6 25 -148 0 c-81 0 -151 -2 -154 -5z"/>
</g>
</svg>
